<?xml version="1.0" encoding="UTF-8"?>
<!DOCTYPE svg PUBLIC "-//W3C//DTD SVG 1.1//EN" "http://www.w3.org/Graphics/SVG/1.1/DTD/svg11.dtd">
<!-- Creator: CorelDRAW -->
<svg xmlns="http://www.w3.org/2000/svg" xml:space="preserve" width="2048px" height="2048px" style="shape-rendering:geometricPrecision; text-rendering:geometricPrecision; image-rendering:optimizeQuality; fill-rule:evenodd; clip-rule:evenodd"
viewBox="0 0 2048 2048"
 xmlns:xlink="http://www.w3.org/1999/xlink">
 <defs>
  <style type="text/css">
   <![CDATA[
    .fil2 {fill:none}
    .fil5 {fill:#01579B}
    .fil6 {fill:#0277BD}
    .fil3 {fill:#616161}
    .fil1 {fill:#B0BEC5}
    .fil0 {fill:#CFD8DC}
    .fil4 {fill:#F9A825}
   ]]>
  </style>
   <clipPath id="id0">
    <path d="M1024 0c565.541,0 1024,458.459 1024,1024 0,565.541 -458.459,1024 -1024,1024 -565.541,0 -1024,-458.459 -1024,-1024 0,-565.541 458.459,-1024 1024,-1024z"/>
   </clipPath>
 </defs>
 <g id="Layer_x0020_1">
  <metadata id="CorelCorpID_0Corel-Layer"/>
  <path class="fil0" d="M1024 0c565.541,0 1024,458.459 1024,1024 0,565.541 -458.459,1024 -1024,1024 -565.541,0 -1024,-458.459 -1024,-1024 0,-565.541 458.459,-1024 1024,-1024z"/>
  <g style="clip-path:url(#id0)">
   <g id="_308720344">
    <g>
     <polygon id="_3030894401" class="fil1" points="1237.42,778.153 2373.3,1914.04 2375.18,1924.12 2376.79,1934.23 2378.14,1944.38 2379.23,1954.56 2380.04,1964.76 2380.6,1974.97 2380.88,1985.18 2380.9,1995.41 2380.66,2005.63 2380.15,2015.84 2379.37,2026.04 2378.33,2036.22 2377.02,2046.37 2375.44,2056.49 2373.6,2066.58 2371.49,2076.63 2369.12,2086.63 2366.48,2096.57 2363.58,2106.46 2360.41,2116.28 2356.97,2126.03 2353.27,2135.71 2349.3,2145.3 2345.07,2154.81 2340.57,2164.23 2335.8,2173.55 2330.77,2182.76 2325.47,2191.87 2319.91,2200.85 2314.08,2209.72 2307.98,2218.47 2301.62,2227.08 1165.74,1091.2 1172.1,1082.58 1178.2,1073.84 1184.03,1064.97 1189.59,1055.98 1194.89,1046.88 1199.92,1037.66 1204.69,1028.35 1209.19,1018.93 1213.42,1009.42 1217.39,999.826 1221.09,990.15 1224.53,980.397 1227.7,970.575 1230.6,960.688 1233.24,950.743 1235.61,940.745 1237.72,930.699 1239.56,920.612 1241.14,910.488 1242.44,900.334 1243.49,890.155 1244.26,879.956 1244.78,869.744 1245.02,859.524 1245,849.302 1244.72,839.083 1244.16,828.873 1243.35,818.678 1242.26,808.502 1240.91,798.353 1239.3,788.234 "/>
     <polygon id="_303089392" class="fil1" points="1160.7,1235.31 2296.59,2371.19 2296.47,2371.08 2296.36,2370.97 1160.48,1235.08 1160.59,1235.2 "/>
     <polygon id="_303091576" class="fil1" points="1091.17,1165.91 2227.05,2301.79 2212.52,2312.36 2197.63,2322.18 2182.4,2331.25 2166.85,2339.57 2151.03,2347.14 2134.95,2353.96 2118.64,2360.02 2102.12,2365.34 2085.43,2369.9 2068.59,2373.71 2051.63,2376.77 2034.57,2379.08 2017.44,2380.63 2000.28,2381.44 1983.09,2381.49 1965.92,2380.8 1948.78,2379.35 1931.71,2377.15 1914.73,2374.19 1897.87,2370.49 1881.15,2366.04 1864.61,2360.83 1848.26,2354.87 1832.14,2348.16 1816.27,2340.7 1800.69,2332.49 1785.4,2323.52 1770.45,2313.81 1755.86,2303.34 1741.65,2292.12 1727.86,2280.15 591.98,1144.27 605.773,1156.24 619.979,1167.46 634.57,1177.92 649.522,1187.64 664.805,1196.61 680.393,1204.82 696.262,1212.28 712.382,1218.99 728.728,1224.95 745.273,1230.15 761.988,1234.61 778.849,1238.31 795.829,1241.27 812.9,1243.47 830.036,1244.91 847.209,1245.61 864.394,1245.56 881.564,1244.75 898.691,1243.2 915.748,1240.89 932.711,1237.83 949.55,1234.02 966.241,1229.45 982.755,1224.14 999.066,1218.08 1015.15,1211.26 1030.97,1203.69 1046.51,1195.37 1061.75,1186.3 1076.64,1176.48 "/>
     <polygon id="_303091288" class="fil1" points="1559.29,1558.6 2695.17,2694.48 2692.03,2697.48 2688.78,2700.28 2685.42,2702.9 2681.97,2705.31 2678.42,2707.54 2674.79,2709.57 2671.08,2711.41 2667.3,2713.05 2663.47,2714.51 2659.58,2715.77 2655.65,2716.83 2651.67,2717.7 2647.67,2718.38 2643.64,2718.87 2639.6,2719.16 2635.55,2719.26 2631.5,2719.17 2627.46,2718.88 2623.43,2718.4 2619.42,2717.73 2615.45,2716.86 2611.51,2715.8 2607.61,2714.54 2603.77,2713.09 2599.99,2711.45 2596.27,2709.62 2592.63,2707.59 2589.07,2705.37 2585.6,2702.95 2582.23,2700.34 2578.96,2697.54 2575.81,2694.54 1439.93,1558.66 1443.08,1561.66 1446.35,1564.46 1449.72,1567.07 1453.19,1569.49 1456.75,1571.71 1460.39,1573.74 1464.11,1575.57 1467.89,1577.21 1471.73,1578.66 1475.63,1579.91 1479.57,1580.98 1483.54,1581.84 1487.55,1582.52 1491.58,1583 1495.62,1583.29 1499.67,1583.38 1503.72,1583.28 1507.76,1582.99 1511.79,1582.5 1515.79,1581.82 1519.76,1580.95 1523.7,1579.88 1527.59,1578.62 1531.42,1577.17 1535.2,1575.53 1538.91,1573.69 1542.54,1571.66 1546.08,1569.43 1549.54,1567.01 1552.9,1564.4 1556.15,1561.6 "/>
     <polygon id="_303091264" class="fil1" points="1145.77,594.949 2281.65,1730.83 2286.54,1736.4 2291.3,1742.04 2295.94,1747.74 2300.46,1753.51 2304.85,1759.35 2309.12,1765.25 2313.27,1771.2 2317.29,1777.22 2321.19,1783.29 2324.97,1789.42 2328.62,1795.61 2332.15,1801.84 2335.55,1808.13 2338.84,1814.46 2342,1820.84 2345.03,1827.26 2347.95,1833.73 2350.74,1840.24 2353.4,1846.78 2355.95,1853.37 2358.37,1859.99 2360.67,1866.65 2362.84,1873.33 2364.89,1880.05 2366.82,1886.8 2368.62,1893.57 2370.3,1900.37 2371.86,1907.19 2373.3,1914.04 1237.42,778.153 1235.98,771.31 1234.42,764.487 1232.74,757.688 1230.94,750.915 1229.01,744.168 1226.96,737.45 1224.78,730.763 1222.49,724.108 1220.07,717.487 1217.52,710.903 1214.86,704.354 1212.07,697.847 1209.15,691.38 1206.12,684.955 1202.96,678.576 1199.67,672.243 1196.27,665.958 1192.74,659.724 1189.09,653.541 1185.31,647.411 1181.41,641.338 1177.39,635.32 1173.24,629.363 1168.97,623.464 1164.58,617.63 1160.06,611.859 1155.42,606.154 1150.66,600.517 "/>
     <polygon id="_303091360" class="fil1" points="1235.34,1160.64 2371.22,2296.52 2371.41,2296.71 2371.59,2296.9 1235.71,1161.02 1235.53,1160.83 "/>
     <polygon id="_303090880" class="fil1" points="1559.18,1439.16 2695.06,2575.04 2698.07,2578.19 2700.87,2581.45 2703.49,2584.81 2705.91,2588.27 2708.14,2591.83 2710.18,2595.46 2712.02,2599.17 2713.67,2602.95 2715.12,2606.79 2716.38,2610.69 2717.45,2614.62 2718.32,2618.6 2719,2622.61 2719.49,2626.64 2719.78,2630.68 2719.88,2634.73 2719.79,2638.79 2719.5,2642.83 2719.02,2646.86 2718.35,2650.87 2717.48,2654.85 2716.42,2658.79 2715.16,2662.69 2713.71,2666.53 2712.07,2670.31 2710.24,2674.03 2708.21,2677.67 2705.99,2681.23 2703.58,2684.7 2700.97,2688.07 2698.17,2691.33 2695.17,2694.48 1559.29,1558.6 1562.29,1555.45 1565.09,1552.18 1567.69,1548.81 1570.11,1545.35 1572.33,1541.79 1574.36,1538.15 1576.19,1534.43 1577.83,1530.65 1579.28,1526.8 1580.54,1522.91 1581.6,1518.97 1582.46,1514.99 1583.14,1510.98 1583.62,1506.95 1583.91,1502.9 1584,1498.85 1583.9,1494.8 1583.61,1490.75 1583.12,1486.72 1582.44,1482.72 1581.57,1478.74 1580.5,1474.8 1579.24,1470.91 1577.79,1467.07 1576.14,1463.29 1574.3,1459.58 1572.26,1455.94 1570.03,1452.39 1567.61,1448.93 1564.99,1445.57 1562.18,1442.31 "/>
    </g>
    <path id="_308720368" class="fil1" d="M1305.16 1185.62l254.019 253.543c33.0721,32.9173 33.0792,86.4426 0.112205,119.44 -32.8571,32.9941 -86.3469,33.0591 -119.362,0.0578741l-254.061 -253.51c-18.8457,-18.8291 -26.941,-44.3658 -24.274,-68.9516l-0.890552 -0.889371c-0.307087,-0.298819 -0.61063,-0.602363 -0.903544,-0.902363l-68.628 -68.4981c-152.969,116.782 -372.548,105.356 -512.547,-34.3654 -56.6953,-56.5902 -92.354,-126.299 -106.987,-199.375 -24.7654,-123.624 10.6724,-256.937 106.426,-352.837 152.414,-152.705 399.681,-152.971 552.306,-0.650788 56.7331,56.6469 92.3918,126.363 107.046,199.473 21.4772,107.314 -2.39528,221.916 -71.6776,313.042l68.452 68.3091c0.00708662,0.00708662 0.0141732,0.0141732 0.0212599,0.0212599 0.509056,0.487796 1.00866,0.986221 1.49764,1.49528l0.453544 0.452363c24.5882,-2.7189 50.1426,5.33032 68.9977,24.1453z"/>
   </g>
  </g>
  <path class="fil2" d="M1024 0c565.541,0 1024,458.459 1024,1024 0,565.541 -458.459,1024 -1024,1024 -565.541,0 -1024,-458.459 -1024,-1024 0,-565.541 458.459,-1024 1024,-1024z"/>
  <path class="fil3" d="M1119.59 775.121l-11.3681 5.08583 -19.1728 -42.8587c-2.41536,5.75552 -6.02008,10.8154 -10.8272,15.1866l-4.61457 -10.3169c2.52284,-2.28898 4.93229,-5.57245 7.20237,-9.83623 2.26299,-4.27796 3.2374,-8.50985 2.90315,-12.7028l9.22678 -4.12796 26.6504 59.5701zm-41.5181 18.574l-11.3669 5.08583 -19.174 -42.8587c-2.41418,5.75552 -6.0189,10.8154 -10.826,15.1866l-4.61575 -10.3169c2.52284,-2.28898 4.93347,-5.57245 7.20355,-9.83741 2.26299,-4.27677 3.23622,-8.50867 2.90197,-12.7016l9.22678 -4.12796 26.6504 59.5701zm-78.3957 -25.0996c-1.36654,0.611811 -2.39764,1.60276 -3.08622,2.95512 -0.682678,1.36536 -0.819686,3.31772 -0.401575,5.84764 0.542126,3.28819 2.35512,8.41182 5.46969,15.3744 3.11339,6.96024 5.61024,11.5795 7.46221,13.8662 1.87323,2.29488 3.52914,3.62599 4.98189,4.02166 1.46102,0.37441 2.87481,0.271654 4.24016,-0.340158 1.38307,-0.617717 2.41418,-1.60984 3.09567,-2.9752 0.688583,-1.35118 0.825591,-3.30355 0.4063,-5.83347 -0.530315,-3.26103 -2.33504,-8.37166 -5.44961,-15.3319 -3.11457,-6.9626 -5.61142,-11.5795 -7.4693,-13.8815 -1.86614,-2.28189 -3.52914,-3.62717 -4.9878,-4.03465 -1.46693,-0.387402 -2.87953,-0.285827 -4.26142,0.33189zm-4.22008 -9.43347c5.75906,-2.57599 11.1697,-2.52638 16.2366,0.12874 6.02126,3.12402 11.5583,10.3122 16.5945,21.5681 5.01615,11.2146 6.67796,20.152 4.99725,26.8063 -1.3937,5.48032 -4.96772,9.49843 -10.728,12.0756 -5.75788,2.57599 -11.4012,2.44843 -16.9276,-0.416929 -5.5193,-2.85118 -10.8272,-9.9756 -15.9189,-21.3567 -4.99843,-11.1732 -6.64725,-20.0823 -4.95945,-26.7225 1.3937,-5.48032 4.96063,-9.51261 10.7055,-12.0827zm-9.56339 75.7713l-11.3681 5.08583 -19.1728 -42.8587c-2.41536,5.75552 -6.02008,10.8154 -10.8272,15.1866l-4.61457 -10.3169c2.52284,-2.28898 4.93229,-5.57126 7.20237,-9.83623 2.26299,-4.27796 3.2374,-8.50985 2.90315,-12.7028l9.22678 -4.12796 26.6504 59.5701zm-78.3957 -25.0996c-1.36654,0.611811 -2.39882,1.60394 -3.08622,2.95512 -0.682678,1.36654 -0.820867,3.31772 -0.401575,5.84882 0.542126,3.28819 2.35394,8.41182 5.46851,15.3732 3.11457,6.96142 5.61142,11.5795 7.46339,13.8673 1.87323,2.29488 3.52914,3.62599 4.98189,4.02048 1.45984,0.37441 2.87362,0.271654 4.24016,-0.338977 1.38189,-0.618898 2.41418,-1.60984 3.09567,-2.97638 0.688583,-1.35118 0.825591,-3.30355 0.4063,-5.83347 -0.530315,-3.26103 -2.33504,-8.37048 -5.44961,-15.3319 -3.11457,-6.9626 -5.61142,-11.5795 -7.4693,-13.8803 -1.86614,-2.28307 -3.52914,-3.62717 -4.9878,-4.03583 -1.46811,-0.387402 -2.87953,-0.285827 -4.26142,0.33189zm-4.22008 -9.43229c5.75906,-2.57717 11.1685,-2.52756 16.2366,0.12874 6.02126,3.12284 11.5583,10.311 16.5933,21.5681 5.01733,11.2146 6.67914,20.152 4.99725,26.8051 -1.39252,5.48032 -4.96654,9.49843 -10.7268,12.0756 -5.75906,2.57599 -11.4024,2.44961 -16.9276,-0.416929 -5.5193,-2.85118 -10.8284,-9.97442 -15.9201,-21.3555 -4.99843,-11.1732 -6.64725,-20.0835 -4.95827,-26.7225 1.39252,-5.4815 4.95945,-9.51261 10.7055,-12.0827zm-9.56457 75.7701l-11.3669 5.08583 -19.174 -42.8575c-2.41418,5.75434 -6.0189,10.8142 -10.826,15.1866l-4.61575 -10.3169c2.52402,-2.29016 4.93347,-5.57245 7.20355,-9.83741 2.26299,-4.27796 3.23622,-8.50985 2.90315,-12.7028l9.22678 -4.12796 26.6492 59.5701zm-78.3945 -25.0996c-1.36772,0.611811 -2.39882,1.60394 -3.0874,2.9563 -0.682678,1.36536 -0.819686,3.31654 -0.401575,5.84764 0.543308,3.28819 2.35512,8.41182 5.46969,15.3732 3.11339,6.96142 5.61024,11.5795 7.46339,13.8673 1.87205,2.29488 3.52914,3.62599 4.98071,4.02048 1.46102,0.37441 2.87481,0.272835 4.24134,-0.338977 1.38189,-0.617717 2.41299,-1.60984 3.09449,-2.9752 0.688583,-1.35236 0.825591,-3.30473 0.4063,-5.83465 -0.530315,-3.26103 -2.33504,-8.37048 -5.44961,-15.3319 -3.11457,-6.96142 -5.61142,-11.5784 -7.4693,-13.8803 -1.86614,-2.28307 -3.52914,-3.62717 -4.9878,-4.03583 -1.46693,-0.387402 -2.87953,-0.285827 -4.26024,0.33189zm-4.22008 -9.43229c5.75906,-2.57717 11.1685,-2.52638 16.2354,0.12874 6.02126,3.12402 11.5583,10.311 16.5945,21.5681 5.01733,11.2146 6.67796,20.152 4.99725,26.8063 -1.3937,5.48032 -4.96772,9.49843 -10.7268,12.0744 -5.75906,2.57717 -11.4024,2.44961 -16.9276,-0.416929 -5.52048,-2.85118 -10.8284,-9.97442 -15.9201,-21.3555 -4.99843,-11.1732 -6.64725,-20.0823 -4.95945,-26.7225 1.3937,-5.4815 4.96063,-9.51261 10.7067,-12.0827zm-9.56457 75.7713l-11.3681 5.08465 -19.1728 -42.8575c-2.41536,5.75552 -6.02008,10.8154 -10.826,15.1866l-4.61575 -10.3169c2.52284,-2.29016 4.93347,-5.57245 7.20237,-9.83741 2.26299,-4.27677 3.2374,-8.50867 2.90315,-12.7016l9.22678 -4.12796 26.6504 59.5701zm-78.3945 -25.0996c-1.36772,0.611811 -2.39882,1.60276 -3.0874,2.95512 -0.682678,1.36536 -0.820867,3.31772 -0.401575,5.84764 0.542126,3.28819 2.35394,8.41182 5.46851,15.3744 3.11457,6.96024 5.61142,11.5795 7.46339,13.8662 1.87323,2.29488 3.53032,3.62599 4.98189,4.02166 1.45984,0.373229 2.87362,0.271654 4.24134,-0.340158 1.38071,-0.617717 2.41299,-1.60984 3.09449,-2.9752 0.688583,-1.35236 0.825591,-3.30355 0.4063,-5.83347 -0.530315,-3.26103 -2.33504,-8.37166 -5.44961,-15.3331 -3.11457,-6.96142 -5.61142,-11.5784 -7.4693,-13.8803 -1.86614,-2.28189 -3.52914,-3.62717 -4.9878,-4.03465 -1.46693,-0.387402 -2.87953,-0.285827 -4.26024,0.33189zm-4.22126 -9.43347c5.75906,-2.57599 11.1685,-2.52638 16.2366,0.12874 6.02245,3.12402 11.5583,10.3122 16.5933,21.5681 5.01733,11.2146 6.67914,20.152 4.99843,26.8063 -1.3937,5.48032 -4.96772,9.49843 -10.7268,12.0744 -5.76024,2.57717 -11.4024,2.44961 -16.9288,-0.415748 -5.5193,-2.85236 -10.8272,-9.9756 -15.9189,-21.3567 -4.99843,-11.1732 -6.64843,-20.0823 -4.95945,-26.7225 1.3937,-5.48032 4.96063,-9.51261 10.7055,-12.0827zm-9.56339 75.7713l-11.3681 5.08583 -19.1728 -42.8587c-2.41536,5.75552 -6.02008,10.8154 -10.8272,15.1866l-4.61575 -10.3169c2.52402,-2.28898 4.93347,-5.57245 7.20355,-9.83623 2.26299,-4.27796 3.2374,-8.50985 2.90315,-12.7028l9.22678 -4.12796 26.6504 59.5701zm-78.3957 -25.0996c-1.36654,0.611811 -2.39882,1.60394 -3.08622,2.95512 -0.682678,1.36654 -0.820867,3.31772 -0.402756,5.84882 0.543308,3.28701 2.35512,8.41064 5.46969,15.3732 3.11457,6.96142 5.61024,11.5795 7.46339,13.8662 1.87205,2.29606 3.52914,3.62599 4.98189,4.02166 1.45984,0.37441 2.87362,0.271654 4.24134,-0.340158 1.38071,-0.617717 2.41181,-1.60984 3.09449,-2.9752 0.687402,-1.35118 0.82441,-3.30355 0.4063,-5.83347 -0.531496,-3.26103 -2.33622,-8.37048 -5.44961,-15.3319 -3.11457,-6.9626 -5.61142,-11.5795 -7.4693,-13.8815 -1.86614,-2.28189 -3.52914,-3.62599 -4.98898,-4.03465 -1.46693,-0.387402 -2.87835,-0.285827 -4.26024,0.33189zm-4.22008 -9.43347c5.75906,-2.57599 11.1685,-2.52638 16.2366,0.12874 6.02126,3.12402 11.5583,10.3122 16.5945,21.5681 5.01733,11.2146 6.67796,20.152 4.99607,26.8063 -1.3937,5.48032 -4.96772,9.49843 -10.7256,12.0744 -5.76024,2.57717 -11.4036,2.45079 -16.9288,-0.415748 -5.5193,-2.85118 -10.8284,-9.97442 -15.9201,-21.3567 -4.99843,-11.1721 -6.64725,-20.0823 -4.95827,-26.7213 1.39252,-5.4815 4.95945,-9.51379 10.7055,-12.0839zm459.991 -222.445l-11.3669 5.08465 -19.174 -42.8575c-2.41418,5.75552 -6.0189,10.8154 -10.826,15.1878l-4.61457 -10.3169c2.52284,-2.29016 4.93229,-5.57363 7.20237,-9.83859 2.26299,-4.27677 3.23622,-8.50985 2.90315,-12.7028l9.22678 -4.12677 26.6492 59.5701zm-41.517 18.574l-11.3681 5.08465 -19.1728 -42.8575c-2.41536,5.75434 -6.02008,10.8154 -10.826,15.1878l-4.61575 -10.3181c2.52284,-2.28898 4.93347,-5.57245 7.20237,-9.83741 2.26299,-4.27796 3.2374,-8.50985 2.90315,-12.7028l9.22678 -4.12796 26.6504 59.5713zm-78.3957 -25.0984c-1.36654,0.61063 -2.39764,1.60158 -3.08622,2.95394 -0.682678,1.36654 -0.819686,3.31772 -0.401575,5.84882 0.542126,3.28819 2.35512,8.41182 5.46851,15.3721 3.11457,6.96142 5.61142,11.5807 7.46339,13.8673 1.87323,2.29606 3.52914,3.62717 4.98189,4.02166 1.45984,0.373229 2.87362,0.271654 4.24016,-0.340158 1.38189,-0.617717 2.41418,-1.60984 3.09567,-2.9752 0.688583,-1.35236 0.825591,-3.30355 0.4063,-5.83347 -0.530315,-3.26103 -2.33504,-8.37166 -5.44961,-15.3331 -3.11457,-6.96024 -5.61142,-11.5784 -7.4693,-13.8803 -1.86614,-2.28189 -3.52914,-3.62599 -4.9878,-4.03465 -1.46811,-0.387402 -2.87953,-0.285827 -4.26142,0.333071zm-4.22008 -9.43465c5.75906,-2.57717 11.1685,-2.52638 16.2366,0.129921 6.02126,3.12402 11.5583,10.311 16.5933,21.5669 5.01733,11.2146 6.67914,20.152 4.99843,26.8063 -1.3937,5.48032 -4.96772,9.49843 -10.728,12.0744 -5.75906,2.57717 -11.4024,2.44961 -16.9276,-0.415748 -5.5193,-2.85236 -10.8272,-9.97442 -15.9189,-21.3555 -4.99961,-11.1744 -6.64843,-20.0835 -4.95945,-26.7236 1.3937,-5.48032 4.96063,-9.51261 10.7055,-12.0827zm-9.56457 75.7713l-11.3669 5.08583 -19.174 -42.8587c-2.41418,5.75552 -6.0189,10.8154 -10.8248,15.1878l-4.61575 -10.3169c2.52284,-2.29016 4.93229,-5.57363 7.20237,-9.83859 2.26299,-4.27677 3.23622,-8.50867 2.90315,-12.7016l9.22678 -4.12796 26.6492 59.5701zm-78.3945 -25.0984c-1.36654,0.61063 -2.39882,1.60158 -3.08622,2.95512 -0.682678,1.36536 -0.820867,3.31654 -0.401575,5.84764 0.542126,3.28819 2.35394,8.41182 5.46851,15.3732 3.11457,6.96024 5.61142,11.5795 7.46339,13.8662 1.87323,2.29606 3.52914,3.62717 4.98189,4.02166 1.45984,0.37441 2.87362,0.271654 4.24016,-0.340158 1.38189,-0.617717 2.41299,-1.60984 3.09567,-2.97402 0.687402,-1.35236 0.825591,-3.30473 0.4063,-5.83465 -0.530315,-3.25985 -2.33622,-8.37166 -5.44961,-15.3319 -3.11457,-6.96142 -5.6126,-11.5795 -7.47048,-13.8815 -1.86496,-2.28189 -3.52796,-3.62599 -4.98662,-4.03347 -1.46811,-0.388583 -2.87953,-0.287008 -4.26142,0.33189zm-4.22126 -9.43465c5.76024,-2.57599 11.1697,-2.52638 16.2378,0.129921 6.02126,3.12402 11.5571,10.311 16.5933,21.5669 5.01733,11.2146 6.67796,20.152 4.99725,26.8063 -1.3937,5.48032 -4.96772,9.49843 -10.7268,12.0756 -5.75906,2.57599 -11.4024,2.44843 -16.9276,-0.416929 -5.52048,-2.85118 -10.8284,-9.97442 -15.9201,-21.3555 -4.99843,-11.1744 -6.64725,-20.0835 -4.95827,-26.7236 1.39252,-5.48032 4.95945,-9.51261 10.7043,-12.0827zm-9.56339 75.7713l-11.3669 5.08583 -19.174 -42.8587c-2.41418,5.75552 -6.02008,10.8154 -10.826,15.1878l-4.61575 -10.3169c2.52402,-2.28898 4.93347,-5.57245 7.20237,-9.83741 2.26299,-4.27796 3.2374,-8.50985 2.90315,-12.7028l9.22678 -4.12796 26.6504 59.5701zm-78.3945 -25.0984c-1.36772,0.611811 -2.39882,1.60276 -3.0874,2.95512 -0.682678,1.36654 -0.819686,3.31772 -0.401575,5.84764 0.543308,3.28819 2.35512,8.41182 5.46851,15.3732 3.11457,6.96142 5.61142,11.5807 7.46339,13.8673 1.87323,2.29488 3.53032,3.62599 4.98189,4.02048 1.45984,0.37441 2.87481,0.271654 4.24134,-0.340158 1.38071,-0.617717 2.41299,-1.60866 3.09567,-2.97402 0.687402,-1.35236 0.82441,-3.30355 0.405118,-5.83465 -0.530315,-3.25985 -2.33504,-8.37048 -5.44961,-15.3319 -3.11457,-6.96142 -5.61142,-11.5795 -7.4693,-13.8803 -1.86614,-2.28307 -3.52914,-3.62717 -4.9878,-4.03465 -1.46693,-0.388583 -2.87953,-0.285827 -4.26024,0.33189zm-4.22008 -9.43465c5.75788,-2.57599 11.1685,-2.52638 16.2354,0.129921 6.02126,3.12402 11.5583,10.311 16.5945,21.5681 5.01615,11.2146 6.67796,20.152 4.99725,26.8051 -1.3937,5.48032 -4.96772,9.49843 -10.7268,12.0756 -5.76024,2.57599 -11.4024,2.44961 -16.9276,-0.415748 -5.52048,-2.85236 -10.8284,-9.9756 -15.9201,-21.3567 -4.99843,-11.1732 -6.64843,-20.0835 -4.95945,-26.7225 1.3937,-5.48032 4.96063,-9.51261 10.7067,-12.0839zm-9.56457 75.7713l-11.3681 5.08583 -19.1728 -42.8575c-2.41536,5.75434 -6.02008,10.8142 -10.826,15.1866l-4.61575 -10.3169c2.52284,-2.28898 4.93229,-5.57245 7.20237,-9.83741 2.26299,-4.27796 3.2374,-8.50985 2.90315,-12.7028l9.22678 -4.12796 26.6504 59.5701zm-78.3945 -25.0984c-1.36772,0.611811 -2.4,1.60276 -3.0874,2.95512 -0.682678,1.36654 -0.820867,3.31772 -0.401575,5.84882 0.542126,3.28819 2.35394,8.41182 5.46851,15.3721 3.11457,6.96142 5.61142,11.5807 7.46339,13.8673 1.87323,2.29606 3.53032,3.62599 4.98189,4.02048 1.45984,0.37441 2.87362,0.272835 4.24134,-0.338977 1.38071,-0.617717 2.41181,-1.60984 3.09449,-2.9752 0.687402,-1.35236 0.825591,-3.30355 0.4063,-5.83465 -0.530315,-3.25985 -2.33622,-8.37048 -5.44961,-15.3319 -3.11457,-6.96142 -5.61142,-11.5784 -7.4693,-13.8803 -1.86614,-2.28307 -3.52914,-3.62599 -4.9878,-4.03465 -1.46811,-0.388583 -2.87953,-0.285827 -4.26024,0.33189zm-4.22126 -9.43465c5.75906,-2.57599 11.1685,-2.5252 16.2366,0.131102 6.02245,3.12284 11.5571,10.3099 16.5933,21.5669 5.01733,11.2146 6.67914,20.152 4.99725,26.8063 -1.3937,5.48032 -4.96772,9.49843 -10.7256,12.0744 -5.76024,2.57717 -11.4036,2.44961 -16.9288,-0.415748 -5.5193,-2.85236 -10.8272,-9.97442 -15.9189,-21.3555 -4.99961,-11.1744 -6.64843,-20.0835 -4.95945,-26.7236 1.3937,-5.48032 4.95945,-9.51261 10.7055,-12.0839zm-9.56457 75.7725l-11.3669 5.08465 -19.174 -42.8575c-2.41418,5.75552 -6.0189,10.8154 -10.826,15.1878l-4.61575 -10.3169c2.52402,-2.29016 4.93347,-5.57363 7.20355,-9.83859 2.26299,-4.27677 3.2374,-8.50985 2.90197,-12.7016l9.22796 -4.12796 26.6492 59.5701zm-78.3945 -25.0996c-1.36654,0.611811 -2.39882,1.60276 -3.08622,2.9563 -0.682678,1.36536 -0.820867,3.31654 -0.402756,5.84764 0.543308,3.28819 2.35512,8.41182 5.46969,15.3732 3.11339,6.96024 5.61024,11.5795 7.46339,13.8662 1.87205,2.29606 3.52914,3.62717 4.98071,4.02166 1.46102,0.373229 2.87481,0.271654 4.24134,-0.340158 1.38189,-0.617717 2.41299,-1.60984 3.09567,-2.97402 0.687402,-1.35354 0.825591,-3.30473 0.405118,-5.83465 -0.530315,-3.25985 -2.33504,-8.37166 -5.44961,-15.3331 -3.11339,-6.96024 -5.61142,-11.5784 -7.4693,-13.8803 -1.86614,-2.28189 -3.52796,-3.62599 -4.9878,-4.03347 -1.46693,-0.388583 -2.87835,-0.287008 -4.26024,0.330709zm-4.22008 -9.43347c5.75906,-2.57717 11.1685,-2.52638 16.2366,0.129921 6.02126,3.12284 11.5583,10.3099 16.5933,21.5669 5.01733,11.2146 6.67796,20.152 4.99725,26.8063 -1.3937,5.48032 -4.96772,9.49843 -10.7268,12.0744 -5.75906,2.57717 -11.4024,2.44961 -16.9276,-0.415748 -5.5193,-2.85236 -10.8284,-9.97442 -15.9201,-21.3555 -4.99843,-11.1744 -6.64725,-20.0835 -4.95945,-26.7236 1.3937,-5.48032 4.96063,-9.51261 10.7067,-12.0827zm459.991 -222.445l-11.3669 5.08583 -19.174 -42.8587c-2.41418,5.75434 -6.0189,10.8154 -10.826,15.1866l-4.61575 -10.3169c2.52402,-2.28898 4.93347,-5.57126 7.20355,-9.83623 2.26299,-4.27796 3.23622,-8.50985 2.90315,-12.7028l9.22678 -4.12796 26.6492 59.5701zm-41.517 18.574l-11.3681 5.08583 -19.1728 -42.8587c-2.41536,5.75434 -6.02008,10.8154 -10.826,15.1866l-4.61575 -10.3169c2.52284,-2.28898 4.93347,-5.57245 7.20237,-9.83741 2.26299,-4.27677 3.2374,-8.50867 2.90315,-12.7016l9.22678 -4.12796 26.6504 59.5701zm-78.3957 -25.0996c-1.36654,0.611811 -2.39764,1.60394 -3.08622,2.95512 -0.682678,1.36654 -0.820867,3.31772 -0.401575,5.84882 0.542126,3.28701 2.35394,8.41064 5.46851,15.3721 3.11457,6.9626 5.61142,11.5807 7.46339,13.8673 1.87323,2.29488 3.52914,3.62717 4.98189,4.02166 1.45984,0.37441 2.87362,0.271654 4.24016,-0.338977 1.38189,-0.618898 2.41418,-1.61102 3.09567,-2.97638 0.688583,-1.35118 0.825591,-3.30355 0.4063,-5.83465 -0.530315,-3.25985 -2.33504,-8.37048 -5.44961,-15.3319 -3.11457,-6.96142 -5.61142,-11.5784 -7.4693,-13.8803 -1.86614,-2.28189 -3.52914,-3.62717 -4.9878,-4.03465 -1.46811,-0.387402 -2.87953,-0.285827 -4.26142,0.33189zm-4.22008 -9.43347c5.75906,-2.57599 11.1685,-2.52638 16.2366,0.12874 6.02126,3.12402 11.5583,10.3122 16.5933,21.5681 5.01733,11.2146 6.67914,20.152 4.99843,26.8063 -1.3937,5.48032 -4.96772,9.49843 -10.728,12.0756 -5.75906,2.57599 -11.4024,2.44961 -16.9288,-0.416929 -5.51811,-2.85118 -10.826,-9.97442 -15.9177,-21.3567 -4.99961,-11.1732 -6.64843,-20.0823 -4.95945,-26.7213 1.3937,-5.4815 4.96063,-9.51379 10.7055,-12.0839zm-9.56457 75.7713l-11.3669 5.08583 -19.174 -42.8575c-2.41418,5.75315 -6.0189,10.8142 -10.826,15.1866l-4.61575 -10.3181c2.52402,-2.28898 4.93347,-5.57126 7.20355,-9.83623 2.26299,-4.27796 3.23622,-8.50985 2.90315,-12.7028l9.22678 -4.12796 26.6492 59.5701zm-78.3957 -25.0984c-1.36536,0.61063 -2.39764,1.60276 -3.08504,2.95394 -0.683859,1.36654 -0.820867,3.31772 -0.402756,5.84882 0.543308,3.28819 2.35512,8.41182 5.46969,15.3721 3.11457,6.9626 5.61024,11.5807 7.46339,13.8685 1.87205,2.29488 3.52796,3.62599 4.98189,4.02048 1.45984,0.37441 2.87362,0.271654 4.24016,-0.338977 1.38189,-0.618898 2.41299,-1.60984 3.09567,-2.97638 0.687402,-1.35118 0.82441,-3.30355 0.405118,-5.83347 -0.530315,-3.26103 -2.33504,-8.37048 -5.44961,-15.3331 -3.11457,-6.96024 -5.61142,-11.5784 -7.4693,-13.8791 -1.86496,-2.28307 -3.52914,-3.62717 -4.9878,-4.03583 -1.46693,-0.387402 -2.87953,-0.285827 -4.26142,0.333071zm-4.22008 -9.43347c5.76024,-2.57717 11.1697,-2.52756 16.2378,0.12874 6.02008,3.12402 11.5571,10.311 16.5933,21.5669 5.01733,11.2158 6.67914,20.1532 4.99725,26.8063 -1.3937,5.48032 -4.96772,9.49843 -10.7268,12.0756 -5.75906,2.57599 -11.4024,2.44961 -16.9276,-0.416929 -5.52048,-2.85118 -10.8284,-9.97442 -15.9201,-21.3555 -4.99843,-11.1732 -6.64725,-20.0835 -4.95827,-26.7225 1.39252,-5.4815 4.95945,-9.51261 10.7043,-12.0827zm-9.56339 75.7713l-11.3669 5.08465 -19.174 -42.8575c-2.41536,5.75434 -6.02008,10.8154 -10.826,15.1866l-4.61575 -10.3169c2.52284,-2.29016 4.93347,-5.57245 7.20237,-9.83741 2.26417,-4.27796 3.2374,-8.50985 2.90315,-12.7028l9.22678 -4.12796 26.6504 59.5713zm-78.3945 -25.0996c-1.36772,0.61063 -2.39882,1.60276 -3.0874,2.95512 -0.682678,1.36536 -0.819686,3.31654 -0.401575,5.84764 0.542126,3.28819 2.35394,8.41182 5.46851,15.3732 3.11457,6.96142 5.61142,11.5795 7.46339,13.8673 1.87323,2.29488 3.53032,3.62599 4.98189,4.02166 1.45984,0.373229 2.87481,0.271654 4.24134,-0.340158 1.38071,-0.617717 2.41299,-1.60984 3.09449,-2.9752 0.688583,-1.35236 0.825591,-3.30473 0.4063,-5.83465 -0.530315,-3.25985 -2.33504,-8.37048 -5.44961,-15.3319 -3.11457,-6.96142 -5.61142,-11.5784 -7.4693,-13.8803 -1.86614,-2.28189 -3.52914,-3.62717 -4.9878,-4.03465 -1.46693,-0.387402 -2.87953,-0.287008 -4.26024,0.33189zm-4.22008 -9.43347c5.75788,-2.57717 11.1685,-2.52638 16.2354,0.12874 6.02126,3.12402 11.5583,10.3122 16.5933,21.5669 5.01733,11.2158 6.67914,20.1532 4.99843,26.8075 -1.3937,5.48032 -4.96772,9.49843 -10.7268,12.0744 -5.76024,2.57717 -11.4024,2.44961 -16.9288,-0.416929 -5.5193,-2.85118 -10.8272,-9.97442 -15.9189,-21.3555 -4.99843,-11.1732 -6.64843,-20.0823 -4.95945,-26.7225 1.3937,-5.4815 4.96063,-9.51261 10.7067,-12.0827zm-9.56457 75.7713l-11.3681 5.08583 -19.1728 -42.8587c-2.41536,5.75434 -6.02008,10.8154 -10.8272,15.1866l-4.61457 -10.3169c2.52284,-2.28898 4.93229,-5.57245 7.20237,-9.83741 2.26299,-4.27677 3.2374,-8.50867 2.90315,-12.7016l9.22678 -4.12796 26.6504 59.5701zm-78.3957 -25.0996c-1.36654,0.611811 -2.39882,1.60276 -3.08622,2.95512 -0.682678,1.36654 -0.820867,3.31772 -0.401575,5.84764 0.542126,3.28819 2.35394,8.41182 5.46851,15.3732 3.11457,6.96142 5.61024,11.5807 7.46339,13.8673 1.87205,2.29488 3.52914,3.62599 4.98189,4.02166 1.45984,0.37441 2.87362,0.271654 4.24134,-0.340158 1.38071,-0.617717 2.41181,-1.60984 3.09449,-2.9752 0.687402,-1.35118 0.825591,-3.30355 0.405118,-5.83465 -0.529134,-3.25985 -2.33504,-8.37048 -5.44961,-15.3319 -3.11339,-6.96142 -5.61024,-11.5784 -7.46812,-13.8803 -1.86614,-2.28189 -3.52914,-3.62717 -4.9878,-4.03465 -1.46811,-0.387402 -2.87953,-0.285827 -4.26142,0.33189zm-4.22008 -9.43347c5.75906,-2.57599 11.1685,-2.52638 16.2366,0.12874 6.02126,3.12402 11.5583,10.3122 16.5933,21.5681 5.01733,11.2146 6.67914,20.152 4.99725,26.8063 -1.3937,5.48032 -4.96772,9.49843 -10.7256,12.0744 -5.76024,2.57717 -11.4036,2.44961 -16.9288,-0.415748 -5.5193,-2.85236 -10.8284,-9.9756 -15.9201,-21.3567 -4.99843,-11.1732 -6.64725,-20.0823 -4.95827,-26.7225 1.39252,-5.48032 4.95945,-9.51261 10.7055,-12.0827zm-9.56457 75.7713l-11.3669 5.08583 -19.174 -42.8575c-2.41536,5.75315 -6.0189,10.8142 -10.826,15.1854l-4.61575 -10.3169c2.52284,-2.28898 4.93347,-5.57126 7.20355,-9.83623 2.26299,-4.27796 3.2374,-8.50985 2.90197,-12.7028l9.22796 -4.12796 26.6492 59.5701zm-78.3945 -25.0996c-1.36772,0.611811 -2.39882,1.60394 -3.0874,2.95512 -0.682678,1.36654 -0.819686,3.31772 -0.401575,5.84882 0.543308,3.28819 2.35512,8.41182 5.46851,15.3721 3.11457,6.9626 5.61142,11.5807 7.46457,13.8685 1.87205,2.29488 3.52914,3.62481 4.98071,4.02048 1.46102,0.37441 2.87481,0.271654 4.24134,-0.340158 1.38189,-0.617717 2.41299,-1.60866 3.09449,-2.9752 0.688583,-1.35118 0.825591,-3.30355 0.4063,-5.83465 -0.530315,-3.25985 -2.33504,-8.3693 -5.44961,-15.3319 -3.11457,-6.96142 -5.61142,-11.5784 -7.4693,-13.8791 -1.86614,-2.28307 -3.52914,-3.62717 -4.9878,-4.03583 -1.46693,-0.387402 -2.87953,-0.285827 -4.26024,0.33189zm-4.22008 -9.43347c5.75906,-2.57599 11.1685,-2.52638 16.2354,0.129921 6.02245,3.12284 11.5595,10.311 16.5945,21.5669 5.01733,11.2146 6.67796,20.1532 4.99725,26.8063 -1.3937,5.48032 -4.96772,9.49843 -10.7268,12.0756 -5.75906,2.57599 -11.4024,2.44961 -16.9276,-0.416929 -5.5193,-2.85118 -10.8284,-9.97442 -15.9201,-21.3555 -4.99843,-11.1732 -6.64725,-20.0835 -4.95945,-26.7225 1.3937,-5.4815 4.96063,-9.51261 10.7067,-12.0839zm459.991 -222.445l-11.3669 5.08583 -19.174 -42.8587c-2.41418,5.75552 -6.0189,10.8154 -10.826,15.1878l-4.61575 -10.3169c2.52402,-2.29016 4.93347,-5.57363 7.20355,-9.83859 2.26299,-4.27677 3.23622,-8.50867 2.90197,-12.7016l9.22678 -4.12796 26.6504 59.5701zm-41.5181 18.574l-11.3669 5.08465 -19.174 -42.8575c-2.41418,5.75434 -6.0189,10.8154 -10.8248,15.1878l-4.61575 -10.3181c2.52284,-2.28898 4.93229,-5.57245 7.20237,-9.83741 2.26299,-4.27677 3.23622,-8.50985 2.90315,-12.7028l9.22678 -4.12677 26.6492 59.5701zm-78.3945 -25.0984c-1.36654,0.61063 -2.39882,1.60158 -3.08622,2.95394 -0.682678,1.36654 -0.820867,3.31772 -0.401575,5.84882 0.542126,3.28819 2.35394,8.41182 5.46851,15.3732 3.11457,6.96024 5.61142,11.5795 7.46339,13.8662 1.87323,2.29606 3.52914,3.62717 4.98189,4.02166 1.45984,0.373229 2.87362,0.271654 4.24016,-0.340158 1.38189,-0.617717 2.41299,-1.60984 3.09567,-2.97402 0.687402,-1.35354 0.825591,-3.30473 0.4063,-5.83465 -0.530315,-3.26103 -2.33622,-8.37166 -5.44961,-15.3331 -3.11457,-6.96024 -5.61142,-11.5784 -7.4693,-13.8803 -1.86614,-2.28189 -3.52914,-3.62599 -4.9878,-4.03465 -1.46811,-0.387402 -2.87953,-0.285827 -4.26142,0.333071zm-4.22126 -9.43465c5.76024,-2.57717 11.1697,-2.52638 16.2378,0.129921 6.02126,3.12402 11.5571,10.311 16.5933,21.5669 5.01733,11.2146 6.67914,20.152 4.99725,26.8063 -1.3937,5.48032 -4.96772,9.49843 -10.7268,12.0744 -5.75906,2.57717 -11.4024,2.44961 -16.9288,-0.415748 -5.5193,-2.85118 -10.826,-9.97442 -15.9177,-21.3555 -4.99961,-11.1744 -6.64843,-20.0835 -4.95945,-26.7236 1.3937,-5.48032 4.95945,-9.51261 10.7043,-12.0827zm-9.56339 75.7713l-11.3669 5.08583 -19.174 -42.8587c-2.41418,5.75552 -6.0189,10.8154 -10.826,15.1878l-4.61575 -10.3169c2.52402,-2.29016 4.93347,-5.57363 7.20355,-9.83859 2.26299,-4.27677 3.23622,-8.50867 2.90197,-12.7016l9.22678 -4.12796 26.6504 59.5701zm-78.3957 -25.0984c-1.36536,0.611811 -2.39764,1.60276 -3.08504,2.95512 -0.683859,1.36536 -0.820867,3.31772 -0.402756,5.84764 0.543308,3.28819 2.35512,8.41182 5.46969,15.3732 3.11339,6.96142 5.61024,11.5807 7.46221,13.8662 1.87323,2.29606 3.52914,3.62717 4.98189,4.02166 1.46102,0.37441 2.87481,0.271654 4.24016,-0.338977 1.38307,-0.618898 2.41418,-1.61102 3.09685,-2.9752 0.687402,-1.35236 0.82441,-3.30473 0.405118,-5.83465 -0.530315,-3.25985 -2.33504,-8.37166 -5.44961,-15.3319 -3.11339,-6.96142 -5.61142,-11.5795 -7.4693,-13.8815 -1.86614,-2.28189 -3.52914,-3.62599 -4.9878,-4.03347 -1.46693,-0.388583 -2.87953,-0.285827 -4.26142,0.33189zm-4.22008 -9.43465c5.75906,-2.57599 11.1697,-2.52638 16.2378,0.129921 6.02008,3.12402 11.5571,10.311 16.5933,21.5669 5.01615,11.2146 6.67796,20.152 4.99725,26.8063 -1.3937,5.48032 -4.96772,9.49843 -10.728,12.0756 -5.75788,2.57599 -11.4012,2.44961 -16.9276,-0.416929 -5.5193,-2.85118 -10.8272,-9.97442 -15.9189,-21.3555 -4.99843,-11.1744 -6.64725,-20.0835 -4.95945,-26.7225 1.3937,-5.4815 4.96063,-9.51379 10.7055,-12.0839zm-9.56339 75.7713l-11.3681 5.08583 -19.1728 -42.8575c-2.41536,5.75434 -6.02008,10.8142 -10.826,15.1866l-4.61575 -10.3169c2.52284,-2.28898 4.93229,-5.57245 7.20237,-9.83741 2.26299,-4.27796 3.2374,-8.50985 2.90315,-12.7028l9.22678 -4.12796 26.6504 59.5701zm-78.3945 -25.0984c-1.36772,0.611811 -2.4,1.60276 -3.0874,2.95512 -0.682678,1.36654 -0.819686,3.31772 -0.401575,5.84882 0.542126,3.28701 2.35394,8.41064 5.46851,15.3721 3.11457,6.96142 5.61142,11.5807 7.46339,13.8673 1.87323,2.29606 3.53032,3.62599 4.98189,4.02048 1.45984,0.37441 2.87362,0.271654 4.24134,-0.338977 1.38071,-0.618898 2.41299,-1.60984 3.09449,-2.9752 0.688583,-1.35236 0.825591,-3.30355 0.4063,-5.83465 -0.530315,-3.25985 -2.33504,-8.37048 -5.44961,-15.3319 -3.11457,-6.96142 -5.61142,-11.5795 -7.4693,-13.8803 -1.86614,-2.28307 -3.52914,-3.62717 -4.9878,-4.03465 -1.46811,-0.388583 -2.87953,-0.285827 -4.26024,0.33189zm-4.22126 -9.43465c5.75906,-2.57599 11.1685,-2.52638 16.2366,0.129921 6.02126,3.12402 11.5583,10.311 16.5933,21.5681 5.01733,11.2146 6.67914,20.152 4.99725,26.8051 -1.39252,5.48032 -4.96772,9.49843 -10.7256,12.0756 -5.76024,2.57599 -11.4036,2.44961 -16.9288,-0.416929 -5.5193,-2.85118 -10.8272,-9.97324 -15.9189,-21.3555 -4.99961,-11.1732 -6.64843,-20.0835 -4.95945,-26.7225 1.3937,-5.48032 4.95945,-9.51261 10.7055,-12.0839zm-9.56457 75.7725l-11.3669 5.08465 -19.174 -42.8575c-2.41418,5.75434 -6.0189,10.8154 -10.826,15.1878l-4.61457 -10.3181c2.52284,-2.28898 4.93229,-5.57245 7.20237,-9.83741 2.26299,-4.27796 3.23622,-8.50985 2.90315,-12.7028l9.22678 -4.12796 26.6492 59.5713zm-78.3945 -25.0996c-1.36654,0.611811 -2.39882,1.60276 -3.08622,2.95512 -0.682678,1.36654 -0.820867,3.31772 -0.401575,5.84882 0.542126,3.28819 2.35394,8.41182 5.46851,15.3721 3.11339,6.96142 5.61024,11.5807 7.46339,13.8673 1.87205,2.29606 3.52914,3.62717 4.98071,4.02166 1.46102,0.373229 2.87481,0.271654 4.24134,-0.340158 1.38189,-0.617717 2.41299,-1.60984 3.09567,-2.9752 0.687402,-1.35236 0.825591,-3.30355 0.405118,-5.83347 -0.529134,-3.26103 -2.33504,-8.37166 -5.44961,-15.3331 -3.11339,-6.96024 -5.61142,-11.5784 -7.4693,-13.8803 -1.86614,-2.28189 -3.52796,-3.62599 -4.98662,-4.03465 -1.46811,-0.387402 -2.87953,-0.285827 -4.26142,0.33189zm-4.22008 -9.43347c5.75906,-2.57717 11.1685,-2.52638 16.2366,0.129921 6.02126,3.12284 11.5571,10.311 16.5933,21.5669 5.01733,11.2146 6.67796,20.152 4.99725,26.8063 -1.3937,5.48032 -4.96772,9.49843 -10.7268,12.0744 -5.75906,2.57717 -11.4024,2.44961 -16.9276,-0.416929 -5.5193,-2.85118 -10.8284,-9.97324 -15.9201,-21.3543 -4.99843,-11.1744 -6.64725,-20.0835 -4.95945,-26.7236 1.3937,-5.48032 4.96063,-9.51261 10.7067,-12.0827zm-9.56457 75.7713l-11.3681 5.08583 -19.1728 -42.8587c-2.41536,5.75552 -6.02008,10.8154 -10.826,15.1878l-4.61575 -10.3169c2.52284,-2.29016 4.93347,-5.57363 7.20237,-9.83859 2.26299,-4.27677 3.23859,-8.50985 2.90315,-12.7016l9.22678 -4.12796 26.6504 59.5701zm-78.3945 -25.0984c-1.36772,0.61063 -2.39882,1.60158 -3.0874,2.95512 -0.682678,1.36536 -0.819686,3.31654 -0.401575,5.84764 0.543308,3.28819 2.35512,8.41182 5.46851,15.3732 3.11457,6.96024 5.61142,11.5795 7.46339,13.8662 1.87323,2.29606 3.53032,3.62717 4.98189,4.02166 1.45984,0.37441 2.87362,0.271654 4.24134,-0.340158 1.38071,-0.617717 2.41299,-1.60984 3.09449,-2.97402 0.688583,-1.35236 0.825591,-3.30473 0.4063,-5.83465 -0.530315,-3.25985 -2.33504,-8.37166 -5.44961,-15.3319 -3.11457,-6.96142 -5.61142,-11.5795 -7.4693,-13.8815 -1.86614,-2.28189 -3.52914,-3.62599 -4.9878,-4.03347 -1.46693,-0.388583 -2.87953,-0.287008 -4.26024,0.33189zm-4.22126 -9.43465c5.75906,-2.57599 11.1685,-2.52638 16.2366,0.129921 6.02245,3.12402 11.5595,10.311 16.5945,21.5669 5.01733,11.2146 6.67796,20.152 4.99725,26.8063 -1.3937,5.48032 -4.96772,9.49843 -10.7268,12.0744 -5.76024,2.57717 -11.4024,2.44961 -16.9288,-0.415748 -5.5193,-2.85236 -10.8272,-9.97442 -15.9189,-21.3555 -4.99843,-11.1744 -6.64843,-20.0835 -4.95945,-26.7236 1.3937,-5.48032 4.96063,-9.51261 10.7055,-12.0827z"/>
  <path class="fil3" d="M1095.77 983.379c-1.36654,0.611811 -2.39882,1.60276 -3.08622,2.95512 -0.682678,1.36654 -0.820867,3.31772 -0.401575,5.84882 0.542126,3.28701 2.35394,8.41064 5.46851,15.3721 3.11457,6.96142 5.61142,11.5807 7.46339,13.8673 1.87323,2.29488 3.52914,3.62717 4.98189,4.02048 1.45984,0.37441 2.87362,0.271654 4.24016,-0.338977 1.38189,-0.618898 2.41299,-1.60984 3.09567,-2.9752 0.687402,-1.35236 0.825591,-3.30355 0.4063,-5.83465 -0.530315,-3.25985 -2.33622,-8.37048 -5.44961,-15.3319 -3.11457,-6.96142 -5.6126,-11.5795 -7.47048,-13.8803 -1.86496,-2.28307 -3.52796,-3.62717 -4.98662,-4.03465 -1.46811,-0.388583 -2.87953,-0.285827 -4.26142,0.33189zm-4.22126 -9.43347c5.76024,-2.57717 11.1697,-2.52756 16.2378,0.12874 6.02126,3.12402 11.5571,10.311 16.5933,21.5681 5.01733,11.2146 6.67914,20.152 4.99725,26.8051 -1.3937,5.48032 -4.96772,9.49843 -10.7268,12.0756 -5.75906,2.57599 -11.4024,2.44961 -16.9288,-0.415748 -5.5193,-2.85236 -10.8272,-9.97442 -15.9189,-21.3567 -4.99843,-11.1732 -6.64725,-20.0835 -4.95827,-26.7225 1.39252,-5.48032 4.95945,-9.51261 10.7043,-12.0827zm-9.56339 75.7701l-11.3669 5.08583 -19.174 -42.8575c-2.41418,5.75434 -6.0189,10.8142 -10.826,15.1866l-4.61575 -10.3169c2.52402,-2.28898 4.93347,-5.57245 7.20237,-9.83741 2.26417,-4.27796 3.2374,-8.50985 2.90315,-12.7028l9.22678 -4.12796 26.6504 59.5701zm-78.3957 -25.0973c-1.36654,0.61063 -2.39764,1.60158 -3.08622,2.95394 -0.682678,1.36654 -0.819686,3.31772 -0.401575,5.84882 0.543308,3.28819 2.35512,8.41182 5.46851,15.3721 3.11457,6.96142 5.61142,11.5807 7.46339,13.8673 1.87323,2.29606 3.52914,3.62717 4.98189,4.02166 1.45984,0.373229 2.87481,0.271654 4.24016,-0.340158 1.38189,-0.617717 2.41418,-1.60984 3.09685,-2.9752 0.687402,-1.35236 0.82441,-3.30355 0.405118,-5.83347 -0.530315,-3.26103 -2.33504,-8.37166 -5.44961,-15.3331 -3.11457,-6.96142 -5.61142,-11.5784 -7.4693,-13.8803 -1.86614,-2.28189 -3.52914,-3.62599 -4.9878,-4.03465 -1.46693,-0.388583 -2.87953,-0.285827 -4.26142,0.333071zm-4.22008 -9.43465c5.75906,-2.57717 11.1697,-2.52638 16.2378,0.129921 6.02008,3.12284 11.5571,10.3099 16.5933,21.5669 5.01615,11.2146 6.67796,20.152 4.99725,26.8063 -1.3937,5.48032 -4.96772,9.49843 -10.728,12.0744 -5.75906,2.57717 -11.4012,2.44961 -16.9264,-0.415748 -5.52048,-2.85236 -10.8284,-9.97442 -15.9201,-21.3555 -4.99843,-11.1744 -6.64843,-20.0835 -4.95945,-26.7236 1.3937,-5.48032 4.96063,-9.51261 10.7055,-12.0827zm-9.56339 75.7713l-11.3681 5.08465 -19.1728 -42.8575c-2.41536,5.75552 -6.02008,10.8154 -10.826,15.1878l-4.61575 -10.3169c2.52284,-2.29016 4.93229,-5.57363 7.20237,-9.83859 2.26299,-4.27677 3.2374,-8.50867 2.90315,-12.7016l9.22678 -4.12796 26.6504 59.5701zm-78.3945 -25.0984c-1.36772,0.61063 -2.4,1.60158 -3.0874,2.95512 -0.682678,1.36536 -0.820867,3.31654 -0.401575,5.84764 0.542126,3.28819 2.35394,8.41182 5.46851,15.3732 3.11457,6.96024 5.61142,11.5795 7.46339,13.8662 1.87323,2.29606 3.53032,3.62717 4.98189,4.02166 1.45984,0.373229 2.87362,0.271654 4.24134,-0.340158 1.38071,-0.617717 2.41181,-1.60984 3.09449,-2.97402 0.687402,-1.35354 0.825591,-3.30473 0.4063,-5.83465 -0.530315,-3.25985 -2.33622,-8.37166 -5.44961,-15.3319 -3.11457,-6.96142 -5.61142,-11.5795 -7.4693,-13.8815 -1.86614,-2.28189 -3.52914,-3.62599 -4.9878,-4.03347 -1.46811,-0.388583 -2.87953,-0.287008 -4.26024,0.33189zm-4.22126 -9.43465c5.75906,-2.57599 11.1685,-2.52638 16.2366,0.129921 6.02126,3.12402 11.5583,10.311 16.5933,21.5669 5.01733,11.2146 6.67914,20.152 4.99725,26.8063 -1.3937,5.48032 -4.96772,9.49843 -10.7256,12.0744 -5.76024,2.57717 -11.4036,2.44961 -16.9288,-0.415748 -5.52048,-2.85118 -10.8272,-9.97442 -15.9189,-21.3555 -4.99961,-11.1744 -6.64843,-20.0835 -4.95945,-26.7236 1.3937,-5.48032 4.95945,-9.51261 10.7055,-12.0827zm-9.56457 75.7713l-11.3669 5.08583 -19.174 -42.8587c-2.41418,5.75552 -6.0189,10.8154 -10.826,15.1878l-4.61575 -10.3169c2.52402,-2.28898 4.93347,-5.57363 7.20355,-9.83741 2.26299,-4.27796 3.23622,-8.50985 2.90315,-12.7028l9.22678 -4.12796 26.6492 59.5701zm-78.3945 -25.0984c-1.36654,0.611811 -2.39882,1.60276 -3.08622,2.95512 -0.682678,1.36536 -0.820867,3.31772 -0.402756,5.84764 0.543308,3.28819 2.35512,8.41182 5.46969,15.3732 3.11339,6.96142 5.61024,11.5807 7.46339,13.8673 1.87205,2.29488 3.52914,3.62599 4.98071,4.02048 1.46102,0.37441 2.87481,0.271654 4.24134,-0.340158 1.38189,-0.617717 2.41299,-1.60866 3.09567,-2.97402 0.687402,-1.35236 0.825591,-3.30355 0.405118,-5.83465 -0.530315,-3.25985 -2.33504,-8.37048 -5.44961,-15.3319 -3.11339,-6.96142 -5.61142,-11.5795 -7.4693,-13.8815 -1.86614,-2.28189 -3.52796,-3.62599 -4.9878,-4.03347 -1.46693,-0.388583 -2.87835,-0.285827 -4.26024,0.33189zm-4.22008 -9.43465c5.75906,-2.57599 11.1685,-2.52638 16.2366,0.129921 6.02126,3.12402 11.5571,10.311 16.5933,21.5669 5.01733,11.2158 6.67796,20.152 4.99725,26.8063 -1.3937,5.48032 -4.96772,9.49843 -10.7268,12.0756 -5.75906,2.57599 -11.4024,2.44961 -16.9276,-0.415748 -5.5193,-2.85236 -10.8284,-9.9756 -15.9201,-21.3567 -4.99843,-11.1732 -6.64725,-20.0835 -4.95945,-26.7225 1.3937,-5.48032 4.96063,-9.51261 10.7067,-12.0839zm326.294 -162.632l-11.3669 5.08465 -19.174 -42.8575c-2.41418,5.75434 -6.0189,10.8154 -10.826,15.1866l-4.61575 -10.3169c2.52402,-2.29016 4.93347,-5.57245 7.20355,-9.83741 2.26299,-4.27677 3.23622,-8.50985 2.90315,-12.7028l9.22678 -4.12677 26.6492 59.5701zm-78.3957 -25.0996c-1.36536,0.61063 -2.39764,1.60276 -3.08504,2.95512 -0.683859,1.36536 -0.820867,3.31654 -0.402756,5.84764 0.543308,3.28819 2.35512,8.41182 5.46969,15.3732 3.11457,6.96142 5.61024,11.5795 7.46339,13.8673 1.87205,2.29488 3.52796,3.62599 4.98189,4.02166 1.45984,0.373229 2.87362,0.271654 4.24016,-0.340158 1.38189,-0.617717 2.41299,-1.60984 3.09567,-2.9752 0.687402,-1.35236 0.82441,-3.30473 0.405118,-5.83465 -0.530315,-3.25985 -2.33504,-8.37048 -5.44961,-15.3319 -3.11339,-6.96142 -5.61142,-11.5784 -7.4693,-13.8803 -1.86496,-2.28189 -3.52914,-3.62717 -4.9878,-4.03465 -1.46693,-0.387402 -2.87953,-0.287008 -4.26142,0.33189zm-4.22008 -9.43347c5.76024,-2.57717 11.1697,-2.52638 16.2378,0.12874 6.02008,3.12402 11.5571,10.3122 16.5933,21.5669 5.01733,11.2158 6.67914,20.1532 4.99725,26.8075 -1.3937,5.48032 -4.96772,9.49843 -10.7268,12.0744 -5.75906,2.57717 -11.4024,2.44961 -16.9288,-0.415748 -5.5193,-2.85118 -10.8272,-9.9756 -15.9189,-21.3567 -4.99843,-11.1732 -6.64725,-20.0823 -4.95827,-26.7225 1.39252,-5.4815 4.95945,-9.51261 10.7043,-12.0827zm-9.56339 75.7713l-11.3669 5.08583 -19.174 -42.8587c-2.41536,5.75434 -6.0189,10.8154 -10.826,15.1866l-4.61575 -10.3169c2.52284,-2.28898 4.93347,-5.57245 7.20355,-9.83741 2.26299,-4.27677 3.23622,-8.50867 2.90197,-12.7016l9.22678 -4.12796 26.6504 59.5701zm-78.3957 -25.0996c-1.36654,0.611811 -2.39764,1.60276 -3.08622,2.95512 -0.682678,1.36654 -0.819686,3.31772 -0.401575,5.84882 0.542126,3.28701 2.35394,8.41064 5.46851,15.3721 3.11457,6.9626 5.61142,11.5807 7.46339,13.8673 1.87323,2.29488 3.52914,3.62717 4.98189,4.02166 1.45984,0.37441 2.87481,0.271654 4.24016,-0.340158 1.38189,-0.617717 2.41418,-1.60984 3.09567,-2.9752 0.688583,-1.35118 0.825591,-3.30355 0.4063,-5.83465 -0.530315,-3.25985 -2.33504,-8.37048 -5.44961,-15.3319 -3.11457,-6.96142 -5.61142,-11.5784 -7.4693,-13.8803 -1.86614,-2.28189 -3.52914,-3.62717 -4.9878,-4.03465 -1.46693,-0.387402 -2.87953,-0.285827 -4.26142,0.33189zm-4.22008 -9.43347c5.75906,-2.57599 11.1697,-2.52638 16.2366,0.12874 6.02126,3.12402 11.5583,10.3122 16.5933,21.5681 5.01733,11.2146 6.67914,20.152 4.99843,26.8063 -1.3937,5.48032 -4.96772,9.49843 -10.728,12.0756 -5.75906,2.57599 -11.4012,2.44961 -16.9276,-0.416929 -5.5193,-2.85118 -10.8272,-9.97442 -15.9189,-21.3567 -4.99843,-11.1732 -6.64843,-20.0823 -4.95945,-26.7213 1.3937,-5.4815 4.96063,-9.51379 10.7055,-12.0839zm-9.56339 75.7713l-11.3681 5.08583 -19.1728 -42.8575c-2.41536,5.75315 -6.02008,10.8142 -10.8272,15.1854l-4.61457 -10.3169c2.52284,-2.28898 4.93229,-5.57126 7.20237,-9.83623 2.26299,-4.27796 3.2374,-8.50985 2.90315,-12.7028l9.22678 -4.12796 26.6504 59.5701zm-78.3957 -25.0996c-1.36654,0.611811 -2.39882,1.60394 -3.08622,2.95512 -0.682678,1.36654 -0.820867,3.31772 -0.401575,5.84882 0.542126,3.28819 2.35394,8.41182 5.46851,15.3721 3.11457,6.9626 5.61024,11.5807 7.46339,13.8685 1.87205,2.29488 3.52914,3.62599 4.98189,4.02048 1.45984,0.37441 2.87362,0.271654 4.24134,-0.340158 1.38071,-0.617717 2.41181,-1.60866 3.09449,-2.9752 0.687402,-1.35118 0.825591,-3.30355 0.405118,-5.83347 -0.529134,-3.26103 -2.33504,-8.37048 -5.44961,-15.3331 -3.11339,-6.96142 -5.61024,-11.5784 -7.46812,-13.8791 -1.86614,-2.28307 -3.52914,-3.62717 -4.9878,-4.03583 -1.46811,-0.387402 -2.87953,-0.285827 -4.26142,0.33189zm-4.22008 -9.43347c5.75906,-2.57599 11.1685,-2.52638 16.2366,0.129921 6.02126,3.12284 11.5583,10.311 16.5933,21.5669 5.01733,11.2158 6.67914,20.1532 4.99725,26.8063 -1.3937,5.48032 -4.96772,9.49843 -10.7256,12.0756 -5.76024,2.57599 -11.4036,2.44961 -16.9288,-0.416929 -5.52048,-2.85118 -10.8284,-9.97442 -15.9201,-21.3555 -4.99843,-11.1732 -6.64725,-20.0835 -4.95827,-26.7225 1.39252,-5.4815 4.95945,-9.51261 10.7055,-12.0839zm-9.56457 75.7713l-11.3669 5.08583 -19.174 -42.8575c-2.41536,5.75434 -6.0189,10.8154 -10.826,15.1866l-4.61575 -10.3169c2.52284,-2.29016 4.93347,-5.57245 7.20355,-9.83741 2.26299,-4.27796 3.23622,-8.50985 2.90315,-12.7028l9.22678 -4.12796 26.6492 59.5701zm-78.3945 -25.0984c-1.36772,0.61063 -2.39882,1.60276 -3.0874,2.95512 -0.682678,1.36536 -0.819686,3.31654 -0.401575,5.84764 0.543308,3.28819 2.35512,8.41182 5.46851,15.3732 3.11457,6.96142 5.61142,11.5795 7.46457,13.8673 1.87205,2.29488 3.52914,3.62599 4.98071,4.02166 1.46102,0.373229 2.87481,0.271654 4.24134,-0.340158 1.38189,-0.617717 2.41299,-1.60984 3.09449,-2.9752 0.688583,-1.35236 0.825591,-3.30473 0.4063,-5.83465 -0.530315,-3.25985 -2.33504,-8.37048 -5.44961,-15.3319 -3.11457,-6.96142 -5.61142,-11.5784 -7.4693,-13.8803 -1.86614,-2.28189 -3.52914,-3.62717 -4.9878,-4.03465 -1.46693,-0.388583 -2.87953,-0.287008 -4.26024,0.33189zm-4.22008 -9.43347c5.75906,-2.57717 11.1685,-2.52638 16.2354,0.12874 6.02245,3.12284 11.5583,10.3122 16.5933,21.5669 5.01851,11.2158 6.67914,20.1532 4.99843,26.8075 -1.3937,5.48032 -4.96772,9.49843 -10.7268,12.0744 -5.75906,2.57717 -11.4024,2.44961 -16.9276,-0.416929 -5.5193,-2.85118 -10.8284,-9.97442 -15.9201,-21.3555 -4.99843,-11.1732 -6.64725,-20.0823 -4.95945,-26.7225 1.3937,-5.4815 4.96063,-9.51261 10.7067,-12.0827zm-9.56457 75.7713l-11.3681 5.08583 -19.1728 -42.8587c-2.41536,5.75434 -6.02008,10.8154 -10.826,15.1866l-4.61575 -10.3169c2.52284,-2.28898 4.93347,-5.57245 7.20237,-9.83741 2.26299,-4.27677 3.23859,-8.50985 2.90315,-12.7016l9.22678 -4.12796 26.6504 59.5701zm-78.3945 -25.0996c-1.36772,0.611811 -2.39882,1.60276 -3.0874,2.95512 -0.682678,1.36536 -0.820867,3.31772 -0.401575,5.84764 0.542126,3.28819 2.35394,8.41182 5.46851,15.3732 3.11457,6.96142 5.61142,11.5807 7.46339,13.8673 1.87323,2.29488 3.53032,3.62599 4.98189,4.02166 1.45984,0.373229 2.87362,0.271654 4.24134,-0.340158 1.38071,-0.617717 2.41299,-1.60984 3.09449,-2.9752 0.688583,-1.35236 0.825591,-3.30355 0.4063,-5.83465 -0.530315,-3.25985 -2.33504,-8.37048 -5.44961,-15.3319 -3.11457,-6.96142 -5.61142,-11.5784 -7.4693,-13.8803 -1.86614,-2.28189 -3.52914,-3.62717 -4.9878,-4.03465 -1.46811,-0.387402 -2.87953,-0.285827 -4.26024,0.33189zm-4.22126 -9.43347c5.75906,-2.57599 11.1685,-2.52638 16.2366,0.12874 6.02245,3.12402 11.5583,10.311 16.5945,21.5669 5.01733,11.2158 6.67796,20.1532 4.99725,26.8075 -1.3937,5.48032 -4.96772,9.49843 -10.7268,12.0744 -5.76024,2.57717 -11.4024,2.44961 -16.9288,-0.415748 -5.5193,-2.85236 -10.8272,-9.9756 -15.9189,-21.3567 -4.99843,-11.1732 -6.64843,-20.0823 -4.95945,-26.7225 1.3937,-5.48032 4.96063,-9.51261 10.7055,-12.0827zm459.992 -222.447l-11.3681 5.08583 -19.1728 -42.8575c-2.41536,5.75434 -6.02008,10.8142 -10.826,15.1866l-4.61575 -10.3169c2.52284,-2.28898 4.93229,-5.57245 7.20237,-9.83741 2.26299,-4.27796 3.2374,-8.50985 2.90315,-12.7028l9.22678 -4.12796 26.6504 59.5701zm-41.5181 18.574l-11.3669 5.08583 -19.174 -42.8575c-2.41418,5.75434 -6.0189,10.8142 -10.826,15.1866l-4.61575 -10.3169c2.52402,-2.28898 4.93347,-5.57245 7.20355,-9.83741 2.26299,-4.27796 3.23622,-8.50985 2.90197,-12.7028l9.22678 -4.12796 26.6504 59.5701zm-78.3957 -25.0984c-1.36536,0.611811 -2.39764,1.60276 -3.08504,2.95512 -0.683859,1.36654 -0.820867,3.31772 -0.402756,5.84882 0.543308,3.28701 2.35512,8.41064 5.46969,15.3721 3.11339,6.96142 5.61024,11.5807 7.46221,13.8673 1.87323,2.29606 3.52914,3.62717 4.98189,4.02048 1.46102,0.37441 2.87481,0.271654 4.24016,-0.338977 1.38307,-0.618898 2.41418,-1.60984 3.09685,-2.9752 0.687402,-1.35236 0.82441,-3.30355 0.405118,-5.83465 -0.530315,-3.25985 -2.33504,-8.37048 -5.44961,-15.3319 -3.11339,-6.96142 -5.61142,-11.5795 -7.4693,-13.8803 -1.86614,-2.28307 -3.52914,-3.62717 -4.9878,-4.03465 -1.46693,-0.388583 -2.87953,-0.285827 -4.26142,0.33189zm-4.22008 -9.43347c5.75906,-2.57717 11.1697,-2.52756 16.2378,0.12874 6.02008,3.12402 11.5571,10.311 16.5933,21.5681 5.01615,11.2146 6.67796,20.152 4.99725,26.8051 -1.3937,5.4815 -4.96772,9.49843 -10.728,12.0756 -5.75788,2.57599 -11.4012,2.44961 -16.9276,-0.416929 -5.5193,-2.85118 -10.8272,-9.97324 -15.9189,-21.3555 -4.99843,-11.1732 -6.64725,-20.0835 -4.95945,-26.7225 1.3937,-5.48032 4.96063,-9.51261 10.7055,-12.0827zm-9.56339 75.7713l-11.3681 5.08465 -19.1728 -42.8575c-2.41536,5.75434 -6.02008,10.8154 -10.826,15.1878l-4.61575 -10.3181c2.52284,-2.28898 4.93229,-5.57245 7.20237,-9.83741 2.26299,-4.27677 3.2374,-8.50985 2.90315,-12.7028l9.22678 -4.12677 26.6504 59.5701zm-78.3957 -25.0984c-1.36654,0.61063 -2.39882,1.60158 -3.08622,2.95394 -0.682678,1.36654 -0.819686,3.31772 -0.401575,5.84882 0.542126,3.28819 2.35394,8.41182 5.46851,15.3721 3.11457,6.96142 5.61142,11.5807 7.46339,13.8673 1.87323,2.29606 3.52914,3.62717 4.98189,4.02166 1.45984,0.373229 2.87362,0.271654 4.24016,-0.340158 1.38189,-0.617717 2.41418,-1.60984 3.09567,-2.97402 0.688583,-1.35354 0.825591,-3.30473 0.4063,-5.83465 -0.530315,-3.26103 -2.33504,-8.37166 -5.44961,-15.3331 -3.11457,-6.96024 -5.61142,-11.5784 -7.4693,-13.8803 -1.86614,-2.28189 -3.52914,-3.62599 -4.9878,-4.03465 -1.46811,-0.387402 -2.87953,-0.285827 -4.26142,0.333071zm-4.22008 -9.43465c5.75906,-2.57717 11.1685,-2.52638 16.2366,0.129921 6.02126,3.12402 11.5583,10.311 16.5933,21.5669 5.01733,11.2146 6.67914,20.152 4.99725,26.8063 -1.39252,5.48032 -4.96654,9.49843 -10.7268,12.0744 -5.75906,2.57717 -11.4024,2.44961 -16.9276,-0.416929 -5.5193,-2.85118 -10.8272,-9.97324 -15.9189,-21.3543 -4.99961,-11.1744 -6.64843,-20.0835 -4.95945,-26.7236 1.3937,-5.48032 4.95945,-9.51261 10.7055,-12.0827zm-9.56457 75.7713l-11.3669 5.08583 -19.174 -42.8587c-2.41418,5.75552 -6.0189,10.8154 -10.826,15.1878l-4.61457 -10.3169c2.52284,-2.29016 4.93229,-5.57363 7.20237,-9.83859 2.26299,-4.27677 3.23622,-8.50867 2.90315,-12.7016l9.22678 -4.12796 26.6492 59.5701zm-78.3945 -25.0984c-1.36654,0.611811 -2.39882,1.60158 -3.08622,2.95512 -0.682678,1.36536 -0.820867,3.31654 -0.401575,5.84764 0.542126,3.28819 2.35394,8.41182 5.46851,15.3732 3.11457,6.96142 5.61024,11.5795 7.46339,13.8662 1.87205,2.29606 3.52914,3.62717 4.98071,4.02166 1.46102,0.37441 2.87481,0.271654 4.24134,-0.340158 1.38189,-0.617717 2.41299,-1.60984 3.09567,-2.97402 0.687402,-1.35236 0.825591,-3.30473 0.405118,-5.83465 -0.529134,-3.25985 -2.33504,-8.37166 -5.44961,-15.3319 -3.11339,-6.96142 -5.61142,-11.5795 -7.4693,-13.8815 -1.86496,-2.28189 -3.52796,-3.62599 -4.98662,-4.03347 -1.46811,-0.388583 -2.87953,-0.285827 -4.26142,0.33189zm-4.22008 -9.43465c5.75906,-2.57599 11.1685,-2.52638 16.2366,0.129921 6.02126,3.12402 11.5571,10.311 16.5933,21.5669 5.01733,11.2146 6.67796,20.152 4.99725,26.8063 -1.3937,5.48032 -4.96772,9.49843 -10.7268,12.0744 -5.75906,2.57717 -11.4024,2.45079 -16.9276,-0.415748 -5.52048,-2.85118 -10.8284,-9.97442 -15.9201,-21.3555 -4.99843,-11.1744 -6.64725,-20.0835 -4.95945,-26.7236 1.3937,-5.48032 4.96063,-9.51261 10.7067,-12.0827zm-9.56457 75.7713l-11.3681 5.08583 -19.1728 -42.8575c-2.41418,5.75434 -6.02008,10.8142 -10.826,15.1866l-4.61575 -10.3169c2.52284,-2.28898 4.93347,-5.57245 7.20237,-9.83741 2.26299,-4.27796 3.2374,-8.50985 2.90315,-12.7028l9.22678 -4.12796 26.6504 59.5701zm-78.3945 -25.0984c-1.36772,0.611811 -2.39882,1.60276 -3.0874,2.95512 -0.682678,1.36654 -0.819686,3.31772 -0.401575,5.84882 0.543308,3.28701 2.35512,8.41064 5.46851,15.3721 3.11457,6.96142 5.61142,11.5807 7.46339,13.8673 1.87323,2.29488 3.53032,3.62599 4.98189,4.02048 1.45984,0.37441 2.87362,0.271654 4.24134,-0.340158 1.38071,-0.617717 2.41299,-1.60866 3.09449,-2.97402 0.688583,-1.35236 0.825591,-3.30355 0.4063,-5.83465 -0.530315,-3.25985 -2.33504,-8.37048 -5.44961,-15.3319 -3.11457,-6.96142 -5.61142,-11.5795 -7.4693,-13.8803 -1.86614,-2.28307 -3.52914,-3.62717 -4.9878,-4.03465 -1.46693,-0.388583 -2.87953,-0.285827 -4.26024,0.33189zm-4.22126 -9.43465c5.75906,-2.57599 11.1685,-2.52638 16.2366,0.129921 6.02245,3.12402 11.5583,10.311 16.5933,21.5681 5.01733,11.2146 6.67914,20.152 4.99843,26.8051 -1.3937,5.48032 -4.96772,9.49843 -10.7268,12.0756 -5.76024,2.57599 -11.4024,2.44961 -16.9288,-0.416929 -5.51811,-2.85118 -10.8272,-9.97324 -15.9189,-21.3555 -4.99843,-11.1732 -6.64843,-20.0835 -4.95945,-26.7225 1.3937,-5.48032 4.96063,-9.51261 10.7055,-12.0839zm-9.56339 75.7713l-11.3681 5.08583 -19.1728 -42.8575c-2.41536,5.75434 -6.02008,10.8154 -10.826,15.1866l-4.61575 -10.3169c2.52284,-2.28898 4.93229,-5.57245 7.20237,-9.83741 2.26299,-4.27796 3.2374,-8.50985 2.90315,-12.7028l9.22678 -4.12796 26.6504 59.5701zm-78.3945 -25.0984c-1.36772,0.611811 -2.4,1.60276 -3.0874,2.95512 -0.682678,1.36654 -0.820867,3.31772 -0.401575,5.84882 0.542126,3.28819 2.35394,8.41182 5.46851,15.3721 3.11457,6.96142 5.61142,11.5807 7.46339,13.8673 1.87323,2.29606 3.53032,3.62717 4.98189,4.02166 1.45984,0.373229 2.87362,0.271654 4.24134,-0.340158 1.38071,-0.617717 2.41181,-1.60984 3.09449,-2.9752 0.687402,-1.35236 0.825591,-3.30355 0.4063,-5.83347 -0.530315,-3.26103 -2.33622,-8.37166 -5.44961,-15.3331 -3.11457,-6.96142 -5.61142,-11.5784 -7.4693,-13.8803 -1.86614,-2.28189 -3.52914,-3.62599 -4.9878,-4.03465 -1.46811,-0.388583 -2.87953,-0.285827 -4.26024,0.33189zm-4.22126 -9.43347c5.75906,-2.57717 11.1685,-2.52638 16.2366,0.129921 6.02245,3.12284 11.5583,10.3099 16.5945,21.5669 5.01733,11.2146 6.67796,20.152 4.99607,26.8063 -1.3937,5.48032 -4.96772,9.49843 -10.7256,12.0744 -5.76024,2.57717 -11.4036,2.44961 -16.9288,-0.416929 -5.5193,-2.85118 -10.8272,-9.97324 -15.9189,-21.3543 -4.99961,-11.1744 -6.64843,-20.0835 -4.95945,-26.7236 1.3937,-5.48032 4.95945,-9.51261 10.7055,-12.0827z"/>
  <polygon class="fil4" points="1407.34,1332.3 1332.74,1407.02 1063.79,1138.58 1138.33,1063.84 "/>
  <path class="fil5" d="M1559.18 1439.16c33.0721,32.9162 33.0792,86.4426 0.112205,119.44 -32.8571,32.9941 -86.3469,33.0591 -119.362,0.0578741l-254.061 -253.51c-32.9681,-32.9398 -33.0355,-86.4012 -0.144095,-119.405 32.9528,-33.0095 86.4485,-33.0449 119.437,-0.126378l254.019 253.543z"/>
  <path class="fil6" d="M471.639 932.168c14.6339,73.076 50.2914,142.785 106.987,199.375 152.671,152.367 399.978,152.164 552.338,-0.494882 95.745,-95.9398 131.197,-229.253 106.453,-352.895l-71.4201 14.3646c20.1201,100.598 -8.72245,209.064 -86.6032,287.124 -123.889,124.128 -325.101,124.321 -449.327,0.327166 -46.0961,-46.0323 -75.1134,-102.716 -87.0072,-162.165l-71.4201 14.3646zm106.426 -352.837c-95.7532,95.8997 -131.191,229.214 -106.426,352.837l71.4166 -14.3634c-20.1508,-100.578 8.66694,-209.06 86.5536,-287.073 123.923,-124.162 325.172,-124.409 449.381,-0.474804 46.1304,46.0571 75.1323,102.787 87.006,162.261l71.4201 -14.3646c-14.6539,-73.1103 -50.3126,-142.826 -107.045,-199.473 -152.627,-152.32 -399.893,-152.054 -552.308,0.650788z"/>
  <path class="fil4" d="M1249.38 1187.14c-5.73662,-28.5236 -33.6685,-47.1107 -62.1922,-41.374 -28.5284,5.73426 -47.1012,33.6815 -41.3646,62.2052 5.73662,28.5236 33.6697,47.1142 62.1969,41.3764 28.5236,-5.73662 47.0977,-33.6803 41.3599,-62.2075z"/>
 </g>
</svg>
