<svg xmlns="http://www.w3.org/2000/svg" viewBox="0 0 340 340"><g id="Layer_14" data-name="Layer 14"><rect x="22.237" y="40.44" width="221.417" height="272.246" style="fill:#b45f6d"/><rect x="30.455" y="66.366" width="20.387" height="57.621" style="fill:#ffcc82"/><polygon points="96.635 123.987 75.58 123.987 50.842 83.909 65.407 74.934 96.635 123.987" style="fill:#a9a9c6"/><polygon points="216.731 123.987 195.677 123.987 170.939 83.909 185.504 74.934 216.731 123.987" style="fill:#ff658f"/><rect x="115.782" y="66.366" width="20.387" height="57.621" style="fill:#f7f7f7"/><rect x="155.082" y="66.366" width="15.857" height="57.621" style="fill:#678ad0"/><rect x="136.169" y="86.123" width="18.912" height="37.864" style="fill:#6377bf"/><rect x="92.109" y="161.76" width="18.926" height="47.614" style="fill:#678ad0"/><rect x="111.035" y="182.024" width="19.379" height="27.35" style="fill:#6377bf"/><rect x="130.414" y="158.046" width="16.522" height="51.328" style="fill:#ff658f"/><polygon points="68.615 209.374 48.592 209.374 78.475 165.72 92.109 175.054 68.615 209.374" style="fill:#ffcc82"/><rect x="113.067" y="243.828" width="17.569" height="59.667" style="fill:#f7f7f7"/><rect x="149.658" y="249.798" width="17.569" height="53.698" style="fill:#f7f7f7"/><rect x="167.227" y="249.798" width="17.569" height="53.698" style="fill:#ff658f"/><rect x="184.796" y="249.798" width="17.569" height="53.698" style="fill:#6377bf"/><rect x="130.635" y="274.119" width="19.023" height="29.376" style="fill:#d6d6d6"/><rect x="163.777" y="191.223" width="54.345" height="18.151" style="fill:#6377bf"/><rect x="163.777" y="173.072" width="38.316" height="18.151" style="fill:#a9a9c6"/><polygon points="72.765 303.495 53.783 303.495 30.455 246.468 46.716 239.816 72.765 303.495" style="fill:#a9a9c6"/><polygon points="91.656 303.495 72.674 303.495 54.197 258.324 70.471 251.707 91.656 303.495" style="fill:#ff658f"/><polygon points="219.654 47.334 219.654 29.865 12.985 29.865 12.985 320.965 219.654 320.965 219.654 303.495 30.455 303.495 30.455 226.843 219.654 226.843 219.654 209.374 30.455 209.374 30.455 141.456 219.654 141.456 219.654 123.987 30.455 123.987 30.455 47.334 219.654 47.334" style="fill:#d36f74"/><rect x="218.79" y="123.987" width="24.864" height="17.469" style="fill:#b45f6d"/><rect x="218.79" y="209.374" width="24.864" height="17.469" style="fill:#b45f6d"/><rect x="218.79" y="303.495" width="24.864" height="17.469" style="fill:#b45f6d"/><rect x="218.79" y="29.865" width="24.864" height="17.469" style="fill:#b45f6d"/><rect x="273.251" y="34.742" width="17.469" height="63.248" transform="translate(348.352 -215.62) rotate(90)" style="fill:#b45f6d"/><rect x="273.251" y="103.498" width="17.469" height="63.248" transform="translate(417.108 -146.864) rotate(90)" style="fill:#b45f6d"/><rect x="273.251" y="173.254" width="17.469" height="63.248" transform="translate(486.864 -77.108) rotate(90)" style="fill:#b45f6d"/><rect x="273.251" y="242.01" width="17.469" height="63.248" transform="translate(555.62 -8.352) rotate(90)" style="fill:#b45f6d"/><rect x="236.77" y="19.036" width="17.469" height="301.929" style="fill:#e0898d"/><rect x="309.545" y="19.036" width="17.469" height="301.929" style="fill:#e0898d"/><path d="M254.239,15.535H236.77a3.5,3.5,0,0,0-3.5,3.5v7.33H12.985a3.5,3.5,0,0,0-3.5,3.5v291.1a3.5,3.5,0,0,0,3.5,3.5H254.239a3.5,3.5,0,0,0,3.5-3.5v-35.1h48.306v35.1a3.5,3.5,0,0,0,3.5,3.5h17.47a3.5,3.5,0,0,0,3.5-3.5V19.035a3.5,3.5,0,0,0-3.5-3.5h-17.47a3.5,3.5,0,0,0-3.5,3.5v35.1H257.739v-35.1A3.5,3.5,0,0,0,254.239,15.535ZM233.27,300H205.864V249.8a3.5,3.5,0,0,0-3.5-3.5H149.658a3.5,3.5,0,0,0-3.5,3.5v20.821H134.136V243.828a3.5,3.5,0,0,0-3.5-3.5h-17.57a3.5,3.5,0,0,0-3.5,3.5V300H94.006l-20.3-49.613a3.5,3.5,0,0,0-4.558-1.917l-12.962,5.27-6.236-15.244a3.5,3.5,0,0,0-4.659-1.874l-11.341,5.036v-11.31H233.27Zm-34.406-46.7V300H188.3V253.3Zm-17.568,0V300H170.727V253.3Zm-17.569,0V300H153.158V253.3Zm-17.569,24.321V300H134.136V277.619Zm-19.022-30.291V300h-10.57V247.328Zm-91.958,1.44,9.663-4.29L67.551,300H56.132ZM48.57,300H33.955V264.269Zm10.271-39.781,9.714-3.95L86.443,300H75.114Zm174.429-54.34H221.621V191.223a3.5,3.5,0,0,0-3.5-3.5H205.593V173.072a3.5,3.5,0,0,0-3.5-3.5H163.776a3.5,3.5,0,0,0-3.5,3.5v17.355a2,2,0,0,1,0,.8v14.651h-9.839V158.046a3.5,3.5,0,0,0-3.5-3.5H130.414a3.5,3.5,0,0,0-3.5,3.5v20.478H114.535V161.76a3.5,3.5,0,0,0-3.5-3.5H92.109a3.5,3.5,0,0,0-3.5,3.5v6.656l-8.156-5.584a3.5,3.5,0,0,0-4.865.911L46.746,205.874H33.955V144.956H233.27Zm-18.649-11.151v11.151H167.276V194.723Zm-47.345-7V176.572h31.317v11.151Zm-23.839-26.177v44.328h-9.523V161.546Zm-16.523,23.978v20.35H114.535v-20.35ZM107.535,165.26v40.614H95.609V165.26Zm-18.926,21.1v19.512H75.252ZM66.77,205.874H55.229l24.158-35.288,7.857,5.379Zm166.5-85.387H218.652l-30.2-47.433a3.5,3.5,0,0,0-4.788-1.1l-9.23,5.687V66.366a3.5,3.5,0,0,0-3.5-3.5H155.082a3.5,3.5,0,0,0-3.5,3.5V82.622H139.669V66.366a3.5,3.5,0,0,0-3.5-3.5H115.782a3.5,3.5,0,0,0-3.5,3.5v54.121H98.556l-30.2-47.433a3.5,3.5,0,0,0-4.788-1.1l-9.229,5.687V66.366a3.5,3.5,0,0,0-3.5-3.5H33.955V50.834H233.27ZM175.757,85.051l8.646-5.328,25.952,40.764H197.63ZM189.4,120.487H174.438V96.243ZM167.438,69.866v50.621h-8.856V69.866ZM151.582,89.622v30.865H139.669V89.622ZM132.669,69.866v50.621H119.282V69.866ZM55.66,85.051l8.647-5.328,25.951,40.764H77.533Zm13.647,35.436H54.342V96.243ZM47.342,69.866v50.621H33.955V69.866ZM233.27,43.834H30.455a3.5,3.5,0,0,0-3.5,3.5v76.653a3.5,3.5,0,0,0,3.5,3.5H233.27v10.469H30.455a3.5,3.5,0,0,0-3.5,3.5v67.918a3.5,3.5,0,0,0,3.5,3.5H233.27v10.469H30.455a3.5,3.5,0,0,0-3.5,3.5V303.5a3.5,3.5,0,0,0,3.5,3.5H233.27v10.47H16.485V33.365H233.27Zm17.469,273.631H240.27V22.535h10.469Zm62.306-294.93h10.47v294.93h-10.47Zm-7,256.334H257.739V268.4h48.306Zm0-17.469H257.739V217.113h48.306Zm0-51.287H257.739v-10.47h48.306Zm0-17.47H257.739V147.357h48.306Zm0-52.286H257.739v-10.47h48.306Zm0-17.47H257.739V78.6h48.306Zm0-61.756V71.6H257.739V61.131Z" style="fill:#3c3c4f"/></g></svg>